<svg width="30" height="30" viewBox="0 0 30 30" fill="none" xmlns="http://www.w3.org/2000/svg">
<path d="M16.25 21.25C16.25 20.9185 16.1183 20.6006 15.8839 20.3661C15.6495 20.1317 15.3315 20 15 20C14.6685 20 14.3505 20.1317 14.1161 20.3661C13.8817 20.6006 13.75 20.9185 13.75 21.25L14.375 26.875C14.375 27.0408 14.4408 27.1998 14.5581 27.317C14.6753 27.4342 14.8342 27.5 15 27.5C15.1658 27.5 15.3247 27.4342 15.4419 27.317C15.5592 27.1998 15.625 27.0408 15.625 26.875L16.25 21.25Z" fill="#348EFB"/>
<path d="M15 15C15.6904 15 16.25 14.4404 16.25 13.75C16.25 13.0597 15.6904 12.5 15 12.5C14.3096 12.5 13.75 13.0597 13.75 13.75C13.75 14.4404 14.3096 15 15 15Z" fill="#348EFB"/>
<path d="M21.0625 23.225C23.1117 21.9141 24.6808 19.9742 25.5345 17.6962C26.3882 15.4182 26.4805 12.9249 25.7976 10.59C25.1147 8.25517 23.6933 6.20458 21.7466 4.74571C19.7998 3.28684 17.4327 2.49829 15 2.49829C12.5673 2.49829 10.2002 3.28684 8.25344 4.74571C6.30673 6.20458 4.88535 8.25517 4.20241 10.59C3.51947 12.9249 3.61177 15.4182 4.46547 17.6962C5.31916 19.9742 6.88826 21.9141 8.9375 23.225M10 17.5C9.30358 16.5715 8.87949 15.4673 8.77526 14.3113C8.67102 13.1553 8.89075 11.9931 9.40983 10.9549C9.92891 9.91678 10.7268 9.04368 11.7142 8.43346C12.7015 7.82325 13.8393 7.50003 15 7.50003C16.1607 7.50003 17.2985 7.82325 18.2858 8.43346C19.2732 9.04368 20.0711 9.91678 20.5902 10.9549C21.1093 11.9931 21.329 13.1553 21.2247 14.3113C21.1205 15.4673 20.6964 16.5715 20 17.5M16.25 21.25C16.25 20.9185 16.1183 20.6006 15.8839 20.3661C15.6495 20.1317 15.3315 20 15 20C14.6685 20 14.3505 20.1317 14.1161 20.3661C13.8817 20.6006 13.75 20.9185 13.75 21.25L14.375 26.875C14.375 27.0408 14.4408 27.1998 14.5581 27.317C14.6753 27.4342 14.8342 27.5 15 27.5C15.1658 27.5 15.3247 27.4342 15.4419 27.317C15.5592 27.1998 15.625 27.0408 15.625 26.875L16.25 21.25ZM16.25 13.75C16.25 14.4404 15.6904 15 15 15C14.3096 15 13.75 14.4404 13.75 13.75C13.75 13.0597 14.3096 12.5 15 12.5C15.6904 12.5 16.25 13.0597 16.25 13.75Z" stroke="#348EFB" stroke-width="2" stroke-linecap="round" stroke-linejoin="round"/>
</svg>
