<svg width="33" height="32" viewBox="0 0 33 32" fill="none" xmlns="http://www.w3.org/2000/svg">
<rect x="0.5" width="32" height="32" rx="16" fill="white"/>
<path d="M16.4999 25.6801C16.1759 25.6828 15.8575 25.5958 15.5799 25.4286L12.1114 23.4001C10.8129 22.6739 9.72906 21.6178 8.96951 20.3385C8.20996 19.0592 7.80158 17.6021 7.78564 16.1144V10.5715C7.7858 10.198 7.90033 9.83347 8.11385 9.52699C8.32736 9.22052 8.6296 8.98678 8.97993 8.85721L15.8714 6.32579C16.2772 6.17721 16.7226 6.17721 17.1285 6.32579L24.0199 8.85721C24.3703 8.98678 24.6725 9.22052 24.886 9.52699C25.0995 9.83347 25.2141 10.198 25.2142 10.5715V16.1144C25.1983 17.6021 24.7899 19.0592 24.0304 20.3385C23.2708 21.6178 22.187 22.6739 20.8885 23.4001L17.4199 25.4286C17.1424 25.5958 16.8239 25.6828 16.4999 25.6801ZM16.4999 7.64579C16.4546 7.63753 16.4081 7.63753 16.3628 7.64579L9.47136 10.1886C9.39373 10.2174 9.32712 10.2698 9.28097 10.3386C9.23482 10.4073 9.21146 10.4888 9.21422 10.5715V16.1144C9.23079 17.3522 9.57402 18.5638 10.2092 19.6264C10.8443 20.689 11.7489 21.565 12.8314 22.1658L16.2999 24.2001C16.3613 24.2336 16.43 24.2511 16.4999 24.2511C16.5698 24.2511 16.6386 24.2336 16.6999 24.2001L20.1685 22.1658C21.2509 21.565 22.1555 20.689 22.7907 19.6264C23.4258 18.5638 23.7691 17.3522 23.7856 16.1144V10.5715C23.786 10.4907 23.7615 10.4117 23.7155 10.3453C23.6695 10.2789 23.6043 10.2282 23.5285 10.2001L16.6371 7.66864C16.5931 7.65272 16.5467 7.64497 16.4999 7.64579Z" fill="#171717"/>
<path d="M15.8717 18.7715C15.703 18.7704 15.5398 18.7119 15.4088 18.6058L12.9688 16.5486C12.8233 16.4266 12.7322 16.2518 12.7156 16.0627C12.699 15.8735 12.7582 15.6856 12.8802 15.5401C13.0022 15.3946 13.177 15.3035 13.3662 15.2869C13.5553 15.2703 13.7433 15.3295 13.8888 15.4515L15.8031 17.0629L19.0717 13.4629C19.199 13.322 19.377 13.2374 19.5667 13.2277C19.7564 13.2181 19.9421 13.2842 20.0831 13.4115C20.224 13.5388 20.3086 13.7169 20.3183 13.9066C20.3279 14.0962 20.2618 14.282 20.1345 14.4229L16.4317 18.5372C16.3608 18.6144 16.274 18.6753 16.1773 18.7157C16.0807 18.7562 15.9764 18.7752 15.8717 18.7715Z" fill="#171717"/>
</svg>
